<svg xmlns="http://www.w3.org/2000/svg" xmlns:xlink="http://www.w3.org/1999/xlink" width="1650" height="1275"><defs><linearGradient id="a"><stop offset="0" stop-color="#2e510e"/><stop offset=".33" stop-color="#3c681a"/><stop offset=".66" stop-color="#5393ad"/><stop offset="1" stop-color="#365f6f"/></linearGradient><linearGradient x1="217.766" y1="243.306" x2="1408" y2="243.306" id="b" xlink:href="#a" gradientUnits="userSpaceOnUse"/></defs><path d="M0 0h1650v1275H0z" fill="#fff"/><path d="M987.5 1174.863c-23.37-2.56-46.942-7.708-70.668-15.438-15.097-4.918-43.414-16.59-45.647-18.817-1.087-1.082-.322-3.033 4.395-11.21 6.314-10.942 38.273-64.584 38.783-65.094.176-.177 6.355 2.574 13.73 6.114 27.52 13.21 52.162 20.7 77.74 23.63 6.197.708 18.204 1.002 30 .732 17.048-.39 20.525-.748 26.108-2.69 13.565-4.717 19.973-12.127 20.828-24.084.645-9.012-1.883-14.535-9.133-19.953-11.03-8.242-21.957-12.338-46.634-17.48-77.01-16.052-104.41-26.007-125.22-45.494-21.42-20.06-29.924-43.527-28.484-78.58.697-16.944 3.822-29.246 11.18-44 3.016-6.05 6.506-12.223 7.755-13.716l2.27-2.714 11.5 1.158c16.088 1.62 82.03 1.596 99.5-.034 51.663-4.82 91.16-15.42 117.83-31.618l7.827-4.755 5.172 2.196c11.166 4.736 30.67 15.32 30.67 16.644 0 .765-5.32 10.492-11.824 21.616-6.505 11.123-16.02 27.536-21.143 36.474-5.124 8.937-9.87 16.25-10.55 16.25-.677 0-4.776-1.624-9.107-3.61-24.386-11.173-51.21-20.12-68.875-22.97-15.167-2.45-42.472-2.493-51.466-.083-16.11 4.316-24.823 15.94-22.49 29.996 2.374 14.287 14.387 20.38 59.457 30.16 71.56 15.526 103.437 28.52 126.035 51.376 12.393 12.533 20.224 28.513 22.85 46.63 4.908 33.87-.657 64.32-15.592 85.31-18.974 26.663-49.156 43.617-90.292 50.716-24.312 4.196-64.487 5.745-86.5 3.336zm382.573-.392c-28.12-4.264-53.873-14.323-77.68-30.34-31.903-21.462-55.837-50.73-71.256-87.13-14.226-33.585-17.825-74.117-9.98-112.41 7.222-35.254 27.735-71.86 54.98-98.112 59.1-56.946 145.384-69.718 218.89-32.398 16.532 8.392 42.884 26.494 42.95 29.5.024 1.152-68.065 61.318-71.057 62.79-1.29.633-3.39-.117-7.78-2.785-8.695-5.282-17.786-9.206-27.303-11.786-11.855-3.216-34.67-3.258-46.337-.088-28.986 7.876-51.888 28.63-63.444 57.49-4.833 12.068-6.37 20.665-6.403 35.797-.037 17.185 2.263 27.163 9.795 42.5 12.425 25.297 34.127 43.6 60.052 50.645 11.452 3.11 33.534 3.113 45 0 16.78-4.55 32.065-13.586 45.38-26.82 4.607-4.582 8.717-8.33 9.133-8.33 1.343 0 73.477 59.012 73.777 60.356.408 1.83-15.21 18.16-26.13 27.323-24.903 20.896-56.182 35.928-88.16 42.37-14.25 2.87-49.724 3.653-64.427 1.423zM117.247 984.26l.253-180.76 44.602-.26c43.846-.256 44.647-.225 47.244 1.818 1.453 1.143 21.84 34.11 45.307 73.26 23.465 39.15 43.156 71.505 43.756 71.9.6.393 1.813-.057 2.7-1 .882-.945 15.912-25.568 33.397-54.718 17.486-29.15 32.512-53.742 33.392-54.65 1.424-1.467 2.805-1.53 12.6-.583 13.522 1.31 79.737 1.37 91.79.082 4.832-.518 8.994-.73 9.25-.48.25.255.46 73.74.46 163.306v162.843l-46.25-.26-46.25-.26-.256-92.323c-.237-85.81-.374-92.3-1.934-92-.94.182-6.316 8.005-12.245 17.823-61.886 102.48-66.96 110.63-69.6 111.833-3.32 1.513-9.356 1.434-12.226-.16-2.155-1.195-10.747-14.99-54.24-87.077-22.69-37.61-26.26-43.164-27.515-42.846-.635.16-1.164 33.105-1.486 92.5l-.5 92.25-46.254.26-46.252.26.252-180.76zM547 995.66V826.316l8.25-2.716c10.246-3.372 24.985-10.296 34.386-16.154l7.136-4.446h142.29l7.22 5.395c17.39 12.996 42.16 21.85 82.968 29.648l5.75 1.1V887h-96.31c-75.468 0-96.677.27-98.017 1.25-1.548 1.133-1.683 3.693-1.44 27.25l.267 26 92 .5 92 .5v84l-92 .5-92 .5v53l97.5.5 97.5.5.26 41.75.262 41.75H547zM200.685 702.323c-39.988-60.814-68.156-109.49-74.55-128.823-4.177-12.626-7.77-29.683-9.584-45.5-3.035-26.476-1.54-76.394 2.854-95.185 3.753-16.053 14.485-42.604 24.543-60.717 25.696-46.277 53.752-79.41 96.04-113.418 32.435-26.084 65.162-42.232 94.786-46.766 11.678-1.788 11.59-1.886 8.574 9.498l-2.523 9.525 23.963 66.28c13.18 36.456 24.56 67.97 25.29 70.03 1.207 3.417 1.12 4.17-.997 8.5-2.494 5.105-88.92 184.39-138.717 287.753-17.786 36.92-30.972 63.134-31.853 63.323-1.008.216-6.88-7.853-17.825-24.5zm625.64-156.54c-.534-.706-11.59-25.133-24.566-54.283-12.98-29.15-39.89-89.45-59.81-134-19.915-44.55-36.677-82.173-37.246-83.608-.876-2.206-.216-4.67 4.288-16 2.928-7.365 5.71-13.897 6.182-14.515.472-.617 3.634-1.436 7.025-1.82 3.39-.384 13.025-2.667 21.41-5.073 25.292-7.26 47.33-17.167 60.072-27.008 18.627-14.384 41.067-29.306 53.817-35.785 16.7-8.486 49.61-13.806 72.342-11.692 13.372 1.243 22.335 3.038 22.848 4.576.196.584-4.323 4.922-10.04 9.64l-10.394 8.577-.61 6.356c-.333 3.495-1.114 16.93-1.733 29.855-1.004 20.99-1.752 26.496-3.374 24.873-.274-.272-4.285-9.45-8.915-20.398s-8.834-20.043-9.343-20.213c-.508-.168-5.73 10.858-11.602 24.503l-10.676 24.81 16.527 52.708 16.53 52.71-11.653 24.255c-6.408 13.34-17.522 36.405-24.698 51.255-7.178 14.85-22.135 45.88-33.24 68.954-11.105 23.074-20.636 42.102-21.18 42.283-.544.18-1.427-.248-1.963-.954zm-309.19-15.95c-1.988-4.62-28.815-64.7-54.623-122.333-8.62-19.25-15.682-35.9-15.693-37-.02-2.076 59.596-139.27 61.25-140.952.59-.602 6.17-.304 15.18.81 50.41 6.237 69.076 8.184 96.556 10.07 13.17.904 18.666 1.652 19.587 2.664.704.775 2.997 7.11 5.095 14.08l3.813 12.673-9.306 19.328C615.36 338.245 559.38 454.415 551.132 471.5c-5.044 10.45-13.803 28.646-19.462 40.436-5.66 11.79-10.826 21.615-11.48 21.834-.656.218-2.03-1.553-3.057-3.937zm520.502-29.083c-.764-1.787-10.953-24.625-22.643-50.75C978.45 368.327 976 362.718 976 360.712c0-1.69 19.586-49.274 48.613-118.1 4.613-10.938 8.387-20.866 8.387-22.062 0-1.196-1.35-6.17-3-11.05-4.612-13.644-4.07-14.92 3.866-9.103 9.007 6.603 17.505 7.013 32.377 1.56 4.54-1.665 13.657-4.377 20.257-6.027 6.6-1.65 12.64-3.225 13.42-3.5 1.04-.364.462-1.494-2.153-4.214-19.7-20.487-18.74-55.39 2.09-76.105C1109.94 102.086 1121.313 97 1133.66 97c6.925 0 15.35 1.86 15.99 3.53.282.734-.65 5.143-2.07 9.797-1.418 4.654-2.574 9.522-2.567 10.818.01 1.295 6.307 24.14 14 50.77 7.693 26.627 13.987 49.17 13.987 50.098 0 .926-2.87 7.715-6.378 15.086-3.508 7.37-16.515 35-28.904 61.4-12.39 26.4-31.627 67.35-42.752 91-11.124 23.65-25.293 53.8-31.485 67-20.78 44.3-22.36 47.5-23.407 47.5-.575 0-1.67-1.463-2.434-3.25zm271.885-89c-1.302-2.887-15.282-34.95-31.067-71.25s-32.616-75-37.4-86c-4.787-11-9.72-22.48-10.963-25.508l-2.26-5.508 11.657-31.992c6.41-17.596 12.246-32.6 12.97-33.343 1.08-1.115 3.216-1.148 12.175-.187 25.926 2.78 43.376 6.908 68.364 16.17 30.722 11.39 42.796 19.256 55.617 36.233 12.114 16.042 13.34 17.244 19.47 19.08 2.977.893 13.336 2.705 23.02 4.027 9.687 1.323 25.437 3.975 35 5.894 9.566 1.92 21.892 3.98 27.392 4.583 22.694 2.484 49.747 8.3 53.366 11.474 2.257 1.98 2.34 2.494 1.77 11.076-.768 11.533-3.354 26.127-5.116 28.868-.753 1.173-3.192 7.757-5.418 14.632-7.62 23.534-15.667 36.657-28.946 47.21-19.46 15.462-64.774 31.19-136.656 47.426-30.192 6.82-56.5 12.364-58.672 12.364-1.372 0-2.63-1.536-4.306-5.25zM432.38 282.544c-1.026-2.67-9.095-65.023-8.592-66.384.32-.863 1.42-1.143 3.103-.787 1.437.303 9.136 1.704 17.11 3.113 19.203 3.39 19 3.338 19 4.97C463 225.193 434.39 284 433.54 284c-.33 0-.853-.655-1.16-1.456zm540.15-32.638c-.323-1.323-.462-19.28-.31-39.906l.28-37.5 3.5.105c5.332.16 30.396 10.498 30.823 12.713.34 1.774-29.815 62.844-32.388 65.588-1.12 1.194-1.407 1.042-1.905-1zm-593.957-30.012c-2.038-4.46-3.465-8.734-3.17-9.5.584-1.524 4.338-1.845 6.384-.547 1.602 1.016 3.018 18.153 1.5 18.153-.554 0-2.676-3.648-4.714-8.106z" fill="#39646d"/><path d="M903 608.337c-49.35-3.586-93.836-11.19-120.016-20.514-11.05-3.936-24.246-11.16-30.39-16.636-2.977-2.652-7.523-8.027-10.104-11.944-3.79-5.755-4.58-7.687-4.104-10.06l.588-2.94-17.237.81c-25.84 1.213-67.823.697-89.227-1.098-27.903-2.34-25.728-2.64-29.52 4.078-12.614 22.352-45.156 38.326-95.39 46.826-53.733 9.09-127.524 7.714-195.1-3.64-51.336-8.625-76.78-20.265-90.28-41.3l-4.454-6.944 1.984-4.558c1.092-2.507 32.914-68.683 70.717-147.058C404.3 157.357 408.19 149.196 407.702 147.5c-.26-.9-11.578-32.238-25.153-69.638-13.577-37.4-24.693-69.35-24.704-71-.025-3.94 1.873-8.76 3.267-8.295.607.202 10.47 21.276 21.916 46.83 11.446 25.556 21.27 47.14 21.832 47.965 1.63 2.4 1.444-1.778-2.518-56.276-2.514-34.564-3.366-51.103-2.67-51.798 1.358-1.36 6.1.79 6.832 3.096.508 1.6 8.094 58.093 14.097 104.978 1.444 11.275 3.012 20.917 3.486 21.426.5.536 7.215-12.098 15.95-30 8.3-17.01 25.04-51.306 37.2-76.216 16.116-33.018 22.52-45.21 23.634-44.995.84.162 2.183 2.4 2.982 4.974l1.453 4.68-38.147 87.255-38.145 87.253 7.34 16.563c4.038 9.11 19.398 43.563 34.135 76.563 14.736 33 31.566 70.717 37.4 83.815 5.832 13.098 11.046 23.835 11.585 23.86.54.025 7.668-13.84 15.843-30.814 42.63-88.513 57.533-119.432 92.087-191.068L665.13 48.45 649.064-3.546c-8.837-28.597-16.06-53.03-16.052-54.293.02-2.95 1.42-5.153 2.95-4.642.66.22 8.17 16.587 16.692 36.37 8.52 19.786 15.91 36.402 16.418 36.924 1.336 1.372 1.198-3.43-1.577-54.91-1.543-28.63-2.124-46.314-1.54-46.9 1.25-1.248 5.862 1.807 7.038 4.663.497 1.208 1.624 10.522 2.504 20.697 3.48 40.236 7.264 78.097 7.866 78.7.35.348.807.446 1.018.217.21-.23 9.93-18.754 21.594-41.167 12.653-24.31 21.776-40.75 22.616-40.75 1.015 0 1.407 1.346 1.407 4.837 0 3.97-3.855 14.452-21.5 58.465C696.675 24.162 687 48.698 687 49.19c0 .495 17.363 39.772 38.585 87.285s52.284 117.212 69.026 154.887c16.744 37.675 30.86 69.17 31.375 69.992.666 1.066 1.24 1.184 2.01.414.593-.593 6.394-12.064 12.89-25.492 6.498-13.427 17.69-36.564 24.87-51.414 7.18-14.85 24.167-49.95 37.75-78 13.58-28.05 26.52-54.954 28.753-59.786l4.06-8.786-16.158-51.383C911.27 58.647 904 34.34 904 32.894c0-3.387 2.776-8.773 4.265-8.277.63.21 7.75 16.083 15.818 35.273 8.068 19.19 15.133 35.044 15.7 35.233 1.352.45 2.552-17.815 6.225-94.76 1.345-28.183 1.54-29.5 4.796-32.52 1.472-1.364 3.243-2.48 3.936-2.48 1 0 1.26 13.597 1.26 66.083 0 46.566.317 65.977 1.072 65.726 1.123-.375 14.495-26.09 39.945-76.81 8.986-17.91 15.594-29.966 16.298-29.735.652.213 1.577 1.94 2.057 3.837.795 3.147-1.262 8.556-23.354 61.424-13.325 31.886-26.43 63.125-29.122 69.42-2.693 6.297-4.896 12.067-4.896 12.822 0 1.272 24.737 57.14 64.28 145.173 9.002 20.043 16.825 36.594 17.385 36.78.56.187 2.95-3.836 5.315-8.94 6.918-14.94 109.862-234.54 138.656-295.78 3.49-7.426 6.35-13.975 6.355-14.556 0-.58-6.514-23.637-14.49-51.24-7.974-27.6-14.5-50.653-14.5-51.226 0-.572.686-2.68 1.524-4.686 1.123-2.69 1.817-3.35 2.642-2.526.616.616 7.506 16.758 15.313 35.873 7.805 19.115 14.65 34.907 15.212 35.094 1.128.375 1.704-4.12 6.374-49.73 2.407-23.512 3.516-31.06 4.84-32.938 2.055-2.915 3.688-3.622 4.29-1.855.242.71-.12 16.593-.8 35.293-1.723 47.157-1.724 50.282-.025 48.464.753-.805 8.446-16.764 17.096-35.464s16.38-35.027 17.176-36.282c1.88-2.962 3.027-2.146 3.852 2.74.586 3.465-1.362 9.502-16.048 49.743-9.193 25.19-17.765 48.877-19.05 52.638l-2.335 6.84 3.32 8.16c1.827 4.49 15.59 36.288 30.58 70.663 26.866 61.59 51.39 117.852 125.44 287.786 20.68 47.456 37.6 87.16 37.6 88.234 0 1.072-1.42 4.318-3.153 7.214-16.613 27.734-63.55 46.54-135.846 54.428-23.983 2.616-88.846 2.588-119.276-.052-11.977-1.04-21.986-1.68-22.242-1.425-.255.254 2.925 8.05 7.066 17.32 4.142 9.267 7.274 17.52 6.96 18.334-.31.815-2.567 4.49-5.012 8.167-15.914 23.94-59.84 40.787-123.994 47.558-35.937 2.455-75.25 2.903-109.5.41zm76.88-19c53.246-2.584 90.693-10.352 118.018-24.482 9.93-5.134 19.102-12.67 19.102-15.692 0-1.124-5.4-14.195-12-29.048-6.6-14.852-12-27.684-12-28.516 0-1.65-.5-1.676 21.5 1.19 42.676 5.56 90.918 7.685 126.5 5.575 68.89-4.086 119.89-18.45 139.963-39.42 3.094-3.233 3.35-3.91 2.41-6.35-.58-1.504-32.022-73.834-69.87-160.734-37.848-86.9-78.595-180.5-90.55-208-12.116-27.874-22.288-50-22.988-50-.69 0-17.98 35.55-38.42 79-52.525 111.643-106.136 225.41-114.392 242.75-3.862 8.114-7.43 14.75-7.927 14.75-.498 0-1.47-1.236-2.16-2.75-.692-1.51-16.695-37.4-35.564-79.75-18.87-42.35-38.442-86.224-43.497-97.5-5.054-11.274-9.42-21.06-9.704-21.75-1.086-2.64-3.07-1.027-5.53 4.5-1.41 3.164-17.613 37.026-36.01 75.25s-43.49 90.426-55.758 116c-12.267 25.576-22.757 47.083-23.31 47.794-.625.803-1.36.937-1.942.355-.874-.875-21.43-46.32-60.455-133.65-9.094-20.35-19.352-43.3-22.796-51-3.445-7.7-12.59-28.174-20.32-45.5l-29.87-66.916c-8.697-19.48-16.3-35.58-16.894-35.778-.594-.198-3.808 5.39-7.14 12.417-3.334 7.028-18.982 39.553-34.773 72.278-15.79 32.726-30.42 63.1-32.508 67.5-22.444 47.3-80.297 166.235-81.393 167.33-1.813 1.813.09 5.666-25.605-51.83-11.676-26.124-27.27-61-34.652-77.5-7.383-16.5-19.368-43.385-26.633-59.745-7.266-16.36-13.66-29.747-14.21-29.747-.55 0-8.073 14.734-16.717 32.745-8.645 18.01-26.8 55.697-40.343 83.747-13.544 28.05-26.11 54.15-27.925 58-1.814 3.85-7.443 15.55-12.51 26-5.064 10.45-17.22 35.65-27.008 56-9.79 20.35-25.27 52.47-34.4 71.377-9.13 18.906-16.6 34.73-16.6 35.164 0 .434 2.123 2.657 4.717 4.94 16.535 14.56 61.145 24.98 130.283 30.434 30.34 2.396 50.265 2.85 73 1.66 50.97-2.66 86.307-9.873 111.08-22.667 8.502-4.39 18.92-12.43 18.92-14.6 0-.556-2.296-6.196-5.102-12.535-5.35-12.084-5.38-13.99-.214-12.777 4.076.956 35.728 4.43 56.316 6.18 40.05 3.405 100.302 1.95 131.594-3.178 4.898-.803 9.468-1.468 10.156-1.477 2.31-.033 1.274 3.413-4.755 15.838-3.297 6.796-5.995 13.156-5.995 14.134 0 2.125 6.053 7.786 12.125 11.34 21.136 12.37 70.508 22.42 133.375 27.147 34.658 2.604 44.358 2.81 71.38 1.496z" transform="translate(0 222.638)" fill="url(#b)"/><path d="M748.563 657.156c-11.36 0-11.563.303-11.563 13.625V681h7v-7.53c0-7.054.156-7.59 2.5-8.658 1.87-.852 3.13-.852 5 0 2.344 1.07 2.5 1.604 2.5 8.657V681h7v-10.22c0-13.252-.672-13.624-12.438-13.624zm233.437 0c-11.44 0-12 .703-12 13.625V681h7v-7.53c0-7.054.156-7.59 2.5-8.658 1.87-.852 3.13-.852 5 0 2.344 1.07 2.5 1.604 2.5 8.657V681h7v-10.22c0-12.92-.56-13.624-12-13.624zm-310.47.157v66.54h42.283V713H684v-55.688zm117.626 0v52.28c1.546 5.207 6.07 10.112 11.344 12.845 1.717.89 5.523 1.558 8.906 1.562 17.777.018 26.734-20.11 15.032-33.78-4.728-5.524-10.352-8.254-18.157-6.72l-6.59 1.28-.19-27.467zm76.032 0c-6.608 0-11.97 5.36-11.97 11.968 0 6.61 5.362 11.97 11.97 11.97 6.607 0 11.968-5.36 11.968-11.97 0-6.605-5.36-11.966-11.968-11.966zm59.666.062c-5.542-.015-9.648.832-12.26 2.188-7.298 3.787-7.235 7.522-7.235 19v45.29h10.63v-49.726c.446-3.617 5.69-5.03 9.26-4.94 9.79.25 9.37 2.125 9.61 9.844v6.768H946v-8.328c0-10.614-1.506-14.27-7.28-17.533-3.252-1.837-8.2-2.547-13.866-2.562zM809.624 695c7.644 0 11.442 9.997 5.907 15.53-3.774 3.778-10.74 3.06-14.25-1.467-.67-.865-1.23-3.206-1.25-5.22-.04-4.73 4.42-8.843 9.596-8.843z" color="#000" overflow="visible"/></svg>