<svg xmlns="http://www.w3.org/2000/svg" height="348.947" width="843.96"><path d="M652.776 234.376c7.364-.424 9.399-1.492 15.273-15.802l23.492-57.382h1.811l28.94 65.286c2.776 6.193 5.341 7.898 10.89 7.898v3.795c-7.37-.11-12.067-.323-16.338-.323-4.268 0-8.863.213-16.63.323v-3.795c6.275 0 7.98-1.062 7.98-3.948 0-1.174-.746-3.419-2.986-8.757l-4.14-9.839h-23.407l-3.533 8.573c-2.67 7.474-2.948 8.849-2.948 9.914 0 2.779.604 3.953 7.617 4.057v3.795c-9.573-.323-10.641-.323-13.209-.323-2.67 0-3.736 0-12.812.323zm46.297-27.153l-10.557-25.099-9.204 25.099zM456.588 234.376c6.939-.104 8.86-2.664 8.86-8.645v-52.323c0-5.983-1.921-8.545-8.86-8.65v-3.887c3.625.106 8.86.321 14.305.321 16.339 0 29.471-.215 39.404-.321l.427 18.62h-3.415c-1.713-10.247-6.304-13.878-19.118-13.878h-9.287v30.634h8.219c9.721 0 11.104-3.298 11.856-10.024h3.628c-.107 4.161-.214 8.112-.214 11.529 0 5.02.107 9.077.214 13.348h-3.628c0-8.435-2.672-10.347-11.96-10.347h-8.115v25.188c0 4.912 2.028 7.584 12.068 7.584 10.89 0 18.473-2.029 21.03-15.485h3.634c-.644 5.128-1.603 14.683-1.603 20.13-10.358-.109-23.916-.322-40.684-.322-8.221 0-14.63.213-16.761.323v-3.795M526.31 234.376c6.942-.104 8.865-2.664 8.865-8.645v-52.323c0-5.983-1.923-8.545-8.866-8.65v-3.887c5.024.106 9.295.321 13.243.321 6.94 0 13.99-.321 20.93-.321 18.575 0 24.453 9.974 24.453 20.437 0 7.264-4.487 15.379-14.847 18.581l13.35 24.558c4.805 8.867 7.369 10.893 13.453 11.744v2.566c-1.602.106-3.203.213-4.915.213-14.197 0-20.07-4.911-26.05-17.62l-4.163-8.523c-4.482-9.503-5.976-10.25-13.135-10.359v23.263c0 5.981 1.924 8.541 8.864 8.645v3.795c-8.541-.216-12.175-.323-15.59-.323-3.418 0-7.045.107-15.593.323zm22.318-36.421c2.028.426 4.913.746 7.052.746 9.607 0 15.372-4.15 15.372-14.509 0-7.795-3.95-19.433-17.833-19.433-1.919 0-3.096.104-4.591.428v32.768M612.076 234.376c6.943-.104 8.859-2.664 8.859-8.645v-58.836h-9.396c-8.539 0-14.203 2.349-14.842 15.801h-3.946l.637-21.825c11.424.106 22.852.216 34.273.321 11.427.107 22.85-.215 34.276-.321l.644 21.825h-3.95c-.642-13.452-6.3-15.801-14.844-15.801h-9.396v58.836c0 5.981 1.918 8.541 8.861 8.645v3.795c-8.539-.216-12.17-.323-15.59-.323-3.414 0-7.045.107-15.586.323v-3.795M467.33 145.535l-6.15-12.938h-2.88v12.938h-8.548v-34.766h13.772c7.713 0 11.864 5.47 11.864 11.183 0 4.737-2.93 7.716-5.664 9.083l7.521 14.5zm-4.197-27.099H458.3v7.032h4.833c2.343 0 3.711-1.71 3.711-3.516 0-1.808-1.368-3.516-3.71-3.516M501.019 145.83c-5.322 0-9.667-.977-13.183-4.591l5.47-5.47c1.806 1.808 4.978 2.443 7.762 2.443 3.37 0 4.981-1.123 4.981-3.125 0-.831-.194-1.512-.685-2.052-.44-.438-1.17-.782-2.293-.927l-4.202-.585c-3.074-.44-5.418-1.464-6.981-3.076-1.612-1.662-2.393-4.006-2.393-6.982 0-6.349 4.786-10.988 12.696-10.988 4.981 0 8.741 1.172 11.718 4.152l-5.37 5.37c-2.198-2.198-5.078-2.05-6.591-2.05-2.979 0-4.2 1.708-4.2 3.222 0 .44.145 1.076.684 1.612.437.44 1.172.877 2.39 1.025l4.202.587c3.124.437 5.37 1.413 6.836 2.88 1.853 1.808 2.588 4.393 2.588 7.617 0 7.081-6.104 10.937-13.43 10.937M529.336 145.535v-34.766h8.544v34.766h-8.544M569.47 118.387v27.148h-8.546v-27.148h-8.547v-7.618h25.636v7.618h-8.544M608.039 131.376v14.159h-8.544v-14.159l-10.5-20.607h9.328l5.469 12.5 5.419-12.5h9.325l-10.497 20.607M668.872 141.923c-2.539 2.54-5.468 3.906-9.716 3.906-4.247 0-7.177-1.366-9.716-3.906-3.664-3.662-3.516-8.544-3.516-13.771 0-5.224-.148-10.107 3.516-13.768 2.539-2.539 5.47-3.907 9.716-3.907 4.248 0 7.177 1.368 9.716 3.907 3.661 3.661 3.516 8.544 3.516 13.768 0 5.227.145 10.11-3.516 13.77zm-6.299-22.315c-.633-.83-1.854-1.513-3.417-1.513-1.563 0-2.784.682-3.419 1.513-.781 1.027-1.268 2.199-1.268 8.544 0 6.35.487 7.472 1.268 8.497.635.831 1.856 1.563 3.419 1.563s2.784-.732 3.417-1.563c.782-1.025 1.271-2.148 1.271-8.497 0-6.345-.49-7.517-1.27-8.544M696.115 118.387v6.104h12.89v7.617h-12.89v13.427h-8.544v-34.766h23.632v7.618h-15.088M232.552 234.376c7.37-.424 9.399-1.492 15.27-15.802l23.495-57.382h1.814l28.937 65.286c2.776 6.193 5.339 7.898 10.888 7.898v3.795c-7.368-.11-12.065-.323-16.336-.323-4.268 0-8.86.213-16.633.323v-3.795c6.278 0 7.985-1.062 7.985-3.948 0-1.174-.748-3.419-2.99-8.757l-4.14-9.839H257.44l-3.536 8.573c-2.672 7.474-2.948 8.849-2.948 9.914 0 2.779.604 3.953 7.617 4.057v3.795c-9.578-.323-10.644-.323-13.206-.323-2.67 0-3.736 0-12.815.323zm46.297-27.153l-10.557-25.099-9.201 25.099zM318.943 234.376c6.937-.104 8.862-2.664 8.862-8.645v-52.323c0-5.983-1.925-8.545-8.862-8.65v-3.887c8.541.216 12.169.321 15.585.321 3.42 0 7.05-.105 15.595-.321v3.888c-6.94.104-8.863 2.666-8.863 8.649v52.323c0 5.552 3.095 7.367 11.959 7.367 14.096 0 21.141-1.815 23.276-15.058h3.63l-1.71 20.13c-5.336-.109-13.131-.109-22.207-.215-8.97-.107-19.117-.107-29.367-.107-3.205 0-5.98.107-7.898.323v-3.795M385.617 234.376c6.943-.104 8.862-2.664 8.862-8.645v-52.323c0-5.983-1.919-8.545-8.862-8.65v-3.887c5.128.216 9.295.321 13.56.321 6.623 0 13.242-.321 19.867-.321 11.101 0 24.659 3.888 24.659 19.37 0 8.435-6.615 15.378-17.935 17.19v.216c12.816 1.816 21.035 7.264 21.035 19.753 0 5.875-2.456 11.427-5.986 14.737-4.372 4.054-9.71 6.034-21.456 6.034-7.156 0-16.014-.323-21.569-.323-4.808 0-8.756.107-12.175.323zm22.318-37.744h5.13c10.618 0 17.19-4.259 17.19-13.936 0-11.107-5.872-17.51-17.512-17.51h-4.808zm0 30.273c0 5.125 2.032 6.62 9.078 6.62 10.25 0 15.268-4.808 15.268-13.88 0-12.01-8.541-19.084-22.956-19.084h-1.39v26.344M274.188 145.83c-7.227 0-13.136-4.883-13.136-12.5v-22.56h8.544v22.365c0 3.221 1.759 5.077 4.592 5.077 2.83 0 4.687-1.856 4.687-5.077v-22.366h8.544v22.56c0 7.618-6.004 12.5-13.231 12.5M323.06 145.535l-11.133-17.479v17.479h-8.544v-34.766h7.469l11.132 17.483v-17.483h8.547v34.766h-7.471M347.079 145.535v-34.766h8.546v34.766h-8.546M386.479 145.535h-6.346l-11.474-34.766h8.836l5.86 19.435 5.762-19.435h8.886l-11.524 34.766M410.795 145.535v-34.766h23.632v7.618h-15.088v5.812h12.89v7.617h-12.89v6.103h15.088v7.616h-23.632M166.172 245.027l-1.041-.354c-.686-.234-16.943-5.867-32.912-19.659-19.352-16.729-21.443-41.937-21.443-52v-62.26l1.818-.883c15.245-7.422 32.267-10.878 53.578-10.878 21.304 0 38.323 3.456 53.563 10.878l1.817.885v62.259c0 10.06-2.088 35.265-21.432 52-15.975 13.791-32.221 19.424-32.907 19.658l-1.041.354" fill="#0d7a3f"/><path d="M166.172 105.46c-19.44 0-35.055 2.981-48.93 9.361v40.724c5.706-3.346 10.505-7.293 14.143-11.502 4.31 4.982 10.232 9.609 17.383 13.292 7.161-3.683 13.092-8.31 17.399-13.292 4.306 4.982 10.24 9.609 17.398 13.292 7.148-3.683 13.068-8.31 17.372-13.292 3.639 4.209 8.44 8.156 14.148 11.502v-40.724c-13.869-6.38-29.481-9.361-48.913-9.361zm24.716 32.45c-5.539 0-9.44-.82-14.964-1.971a14.245 14.245 0 00-2.896-.31 13.08 13.08 0 00-5.58 1.232c-.45.214-.875.446-1.281.682a17.543 17.543 0 00-1.271-.682 13.125 13.125 0 00-5.579-1.232c-.921 0-1.9.102-2.905.31-5.524 1.15-9.43 1.972-14.97 1.972-.78 0-1.6-.016-2.46-.048l1.74-18.667c.89.04 1.707.06 2.48.07l.451-5.833 1.678.084c.658.031 1.254.044 1.822.044 1.943 0 3.626-.174 5.486-.57 1.176-.247 2.345-.563 3.7-.924.625-.167 1.286-.344 1.997-.53 2.443-.596 4.664-.276 6.695.883.388.22.772.472 1.133.753.364-.278.75-.533 1.15-.757 2.02-1.152 4.355-1.461 6.665-.881.75.193 1.43.376 2.07.548 1.334.356 2.487.664 3.644.908 2.476.526 4.61.664 7.302.526l1.682-.086.451 5.836c.779-.011 1.583-.028 2.487-.071l1.746 18.667c-.866.032-1.686.048-2.473.048" fill="#fef3b2"/><path d="M157.677 130.535l-.146.037c-4.552 1.14-7.562 1.893-11.88 1.896l1.193-15.45c2.304 0 4.295-.175 6.51-.645 1.266-.268 2.477-.59 3.88-.965a188.32 188.32 0 011.949-.519c1.502-.369 2.866-.188 4.145.542.47.264.83.552 1.11.805v14.58a11.928 11.928 0 00-6.76-.281M174.659 130.535c-2.29-.572-4.563-.482-6.763.281v-14.56a6.12 6.12 0 011.123-.833c1.257-.716 2.702-.891 4.109-.536.727.185 1.396.365 2.028.533 1.38.37 2.573.69 3.82.953 2.112.446 4.013.647 6.21.647.098 0 .197-.003.3-.003l1.194 15.451c-4.399-.003-7.43-.772-12.021-1.933" fill="#fff"/><path d="M166.177 163.608c6.354-1.435 12.2-3.601 17.388-6.273-7.158-3.683-13.092-8.31-17.398-13.292-4.307 4.982-10.243 9.609-17.41 13.286 5.199 2.68 11.052 4.847 17.42 6.279" fill="#479954"/><path d="M131.422 163.587a78.685 78.685 0 0017.42 1.941c6.095 0 11.893-.701 17.325-1.923-6.36-1.432-12.195-3.604-17.391-6.273-5.18 2.664-11.013 4.82-17.354 6.255M166.167 163.605a78.846 78.846 0 0017.32 1.923 78.68 78.68 0 0017.425-1.943c-6.341-1.433-12.172-3.589-17.355-6.256-5.193 2.67-11.03 4.844-17.39 6.276" fill="#298948"/><path d="M117.242 165.433c4.945-.2 9.693-.833 14.18-1.846a73.953 73.953 0 01-14.18-4.768v6.614" fill="#3e9450"/><path d="M117.242 155.545v3.271a73.845 73.845 0 0014.193 4.773c6.33-1.434 12.156-3.593 17.333-6.254-7.15-3.683-13.073-8.31-17.383-13.292-3.638 4.209-8.437 8.156-14.143 11.502" fill="#77b067"/><path d="M215.085 158.819a73.7 73.7 0 01-14.173 4.768c4.487 1.013 9.23 1.644 14.173 1.846v-6.614" fill="#3e9450"/><path d="M215.085 158.816v-3.27c-5.708-3.347-10.509-7.294-14.148-11.503-4.304 4.982-10.224 9.609-17.372 13.292 5.178 2.661 11.006 4.82 17.334 6.254a73.84 73.84 0 0014.186-4.773" fill="#77b067"/><path d="M209.164 174.313c-2.587-1.645-5.028-3.198-8.225-3.198-3.199 0-5.64 1.556-8.224 3.201-2.676 1.705-5.442 3.468-9.158 3.468-3.714 0-6.485-1.763-9.164-3.468-2.586-1.647-5.03-3.201-8.229-3.201-3.197 0-5.641 1.556-8.228 3.201-2.679 1.705-5.448 3.468-9.163 3.468-3.713 0-6.482-1.763-9.156-3.468-2.585-1.647-5.026-3.201-8.223-3.201-3.2 0-5.641 1.553-8.227 3.198-1.802 1.147-3.651 2.311-5.799 2.955.143 2.45.43 5.327.962 8.46 1.529-.633 2.93-1.519 4.303-2.388 2.592-1.644 5.273-3.345 8.76-3.345 3.49 0 6.168 1.701 8.76 3.345 2.672 1.697 5.196 3.299 8.62 3.299 3.424 0 5.951-1.602 8.626-3.299 2.596-1.644 5.277-3.345 8.765-3.345 3.49 0 6.172 1.701 8.765 3.345 2.678 1.697 5.204 3.299 8.628 3.299 3.424 0 5.948-1.602 8.62-3.299 2.594-1.644 5.274-3.345 8.762-3.345 3.488 0 6.168 1.701 8.758 3.345 1.371.87 2.772 1.752 4.3 2.387.531-3.135.819-6.011.962-8.46-2.146-.643-3.995-1.807-5.795-2.954" fill="#fddb0b"/><path d="M171.177 236.012v-3.871l-4.585 4.508-3.867-3.762v-5.842l3.867 3.776 4.585-4.533v-6.382l-4.585 4.508-3.867-3.76v-6.127l3.867 3.778 4.585-4.533v-6.915l-4.585 4.508-3.867-3.761v-5.73l3.867 3.527 6.539-6.369-6.932-5.88-7.591 6.588v35.045c3.481 1.735 6.173 2.843 7.563 3.38a85.895 85.895 0 005.006-2.153M153.808 220.532l-4.585 4.707-3.868-3.95v-6.08l3.868 3.837 4.585-4.602v-7.217l-4.585 4.576-3.868-3.818v-6.11l3.868 3.526 6.538-6.369-6.932-5.88-7.59 6.588v24.267a108.754 108.754 0 0012.569 8.229v-11.704M183.961 205.401l6.539-6.369-6.932-5.88-7.592 6.588v33.889a110.434 110.434 0 0012.57-7.746v-5.351l-4.585 4.707-3.868-3.95v-6.08l3.868 3.837 4.586-4.602v-7.217l-4.586 4.576-3.868-3.818v-6.11l3.868 3.526M201.33 205.401l6.54-6.369-6.933-5.88-7.592 6.588v22.504a96.4 96.4 0 002.55-2.123c4.178-3.616 7.45-7.696 10.021-11.932v-.962l-4.585 4.576-3.868-3.818v-6.11l3.868 3.526M131.854 205.401l6.54-6.369-6.934-5.88-7.59 6.588v3.75c2.838 5.889 6.861 11.691 12.57 16.627v-12.89l-4.586 4.576-3.868-3.818v-6.11l3.868 3.526" fill="#feec81"/></svg>